<svg width="20" height="20" viewBox="0 0 20 20" fill="none" xmlns="http://www.w3.org/2000/svg">
<path fill-rule="evenodd" clip-rule="evenodd" d="M9.16602 1.66675H4.99935C3.15852 1.66675 1.66602 3.15925 1.66602 5.00008V15.0001C1.66602 16.8409 3.15852 18.3334 4.99935 18.3334H14.9993C16.8402 18.3334 18.3327 16.8409 18.3327 15.0001C18.3327 13.1076 18.3327 10.8334 18.3327 10.8334C18.3327 10.3734 17.9593 10.0001 17.4993 10.0001C17.0393 10.0001 16.666 10.3734 16.666 10.8334V15.0001C16.666 15.9201 15.9193 16.6667 14.9993 16.6667C12.2243 16.6667 7.77352 16.6667 4.99935 16.6667C4.07852 16.6667 3.33268 15.9201 3.33268 15.0001C3.33268 12.2251 3.33268 7.77425 3.33268 5.00008C3.33268 4.07925 4.07852 3.33341 4.99935 3.33341H9.16602C9.62602 3.33341 9.99935 2.96008 9.99935 2.50008C9.99935 2.04008 9.62602 1.66675 9.16602 1.66675ZM15.4877 3.33341H12.4993C12.0393 3.33341 11.666 2.96008 11.666 2.50008C11.666 2.04008 12.0393 1.66675 12.4993 1.66675H17.4993C17.9593 1.66675 18.3327 2.04008 18.3327 2.50008V7.50008C18.3327 7.96008 17.9593 8.33342 17.4993 8.33342C17.0393 8.33342 16.666 7.96008 16.666 7.50008V4.51175L10.5885 10.5892C10.2635 10.9142 9.73518 10.9142 9.41018 10.5892C9.08435 10.2642 9.08435 9.73591 9.41018 9.41091L15.4877 3.33341Z" fill="#12CDD9"/>
</svg>
